<svg width="90" height="90" viewBox="0 0 90 90" fill="none" xmlns="http://www.w3.org/2000/svg">
<path d="M58.4385 20.2785C56.8946 21.8224 55.4801 23.4957 54.2228 25.28L53.8252 25.1506C51.5325 24.4017 49.1565 23.9395 46.762 23.7823C46.0409 23.7269 43.3506 23.7269 42.4723 23.7823C39.819 23.958 37.7851 24.3555 35.4738 25.1598C35.3814 25.1968 35.2982 25.2245 35.215 25.2523C33.9114 23.4772 32.4599 21.8131 30.8606 20.2877C38.5339 16.3586 47.5109 15.8871 55.5448 18.9842C56.4046 19.3077 57.2459 19.6868 58.0687 20.0936L58.4385 20.2785Z" fill="#F00500"/>
<path d="M72.7498 55.3447C71.5849 58.6637 69.8376 61.7423 67.5726 64.4233C66.343 65.8655 64.984 67.1876 63.5232 68.3894C60.1026 71.1444 56.1087 73.1136 51.8468 74.149C47.1318 75.2862 42.2134 75.2862 37.4985 74.149C33.2272 73.1136 29.2426 71.1444 25.822 68.3894C24.3613 67.1876 23.0022 65.8655 21.7726 64.4233C15.2549 56.7222 13.2764 46.146 16.5954 36.6144C17.2241 34.8486 18.0099 33.1475 18.9529 31.5296C19.3874 30.79 19.9236 29.958 20.1825 29.6159C21.07 33.4341 22.1609 36.79 22.5677 38.0011C22.54 38.0658 22.503 38.1398 22.466 38.2045C20.3119 42.5681 19.147 46.7746 18.8697 51.2492C18.8697 51.3047 18.8604 51.3694 18.8604 51.4249C18.7865 52.7654 18.8235 53.4033 19.0453 54.2446C19.7387 56.8794 21.8743 59.7823 25.221 62.6298C30.7034 67.2893 38.1364 70.6544 43.7666 71.0427C49.6372 71.4403 58.2998 68.0104 64.0687 62.9996C64.9747 62.1953 65.8253 61.3447 66.6203 60.4387C67.1935 59.7731 68.0441 58.6267 67.9794 58.6267C67.9609 58.6267 67.9794 58.6082 68.0163 58.5897C68.0441 58.5712 68.0718 58.5435 68.0533 58.525C68.0441 58.5158 68.0626 58.488 68.0903 58.4788C68.118 58.4695 68.1365 58.451 68.1273 58.4326C68.118 58.4141 68.1273 58.3956 68.1643 58.3863C68.192 58.3771 68.2012 58.3493 68.192 58.3309C68.1827 58.3124 68.192 58.2939 68.2105 58.2939C68.229 58.2939 68.2475 58.2661 68.2475 58.2477C68.2475 58.2292 68.2659 58.2014 68.2844 58.2014C68.3029 58.2014 68.3214 58.1829 68.3214 58.1645C68.3492 58.0905 68.3954 58.0165 68.4416 57.9518C68.5803 57.7392 69.135 56.75 69.2089 56.5836C69.7359 55.3909 70.0687 54.3278 70.2259 53.2646C70.2999 52.7561 70.3461 51.8224 70.3091 51.6005C70.2999 51.5635 70.2999 51.4988 70.2906 51.3971C70.2721 51.2122 70.2629 50.9349 70.2444 50.6575C70.2259 50.2415 70.1889 49.6591 70.1612 49.3725C69.7636 45.1752 68.6912 41.7453 66.6573 38.1121C66.5741 37.9734 66.5002 37.8347 66.4539 37.7238C66.4354 37.696 66.4262 37.6683 66.4169 37.6498C66.7035 36.79 67.8777 33.1937 68.8114 29.0797L68.8299 29.0982L68.9686 29.2831C69.2089 29.6067 69.8468 30.5681 70.1334 31.0304C71.437 33.1567 72.454 35.4403 73.1751 37.8255C74.8484 43.5666 74.7097 49.6868 72.7498 55.3447Z" fill="#F00500"/>
<path d="M60.7497 44.297C60.722 44.4449 60.2875 44.8886 59.853 45.2122C58.5771 46.146 56.2936 47.015 53.9731 47.431C52.6511 47.6714 51.329 47.7084 50.9315 47.5142C50.6726 47.3848 50.6357 47.2831 50.7281 46.9503C50.9223 46.2569 51.5509 45.4988 52.5309 44.7869C53.0301 44.4264 55.0548 43.1968 55.9978 42.6791C57.5509 41.8285 58.8083 41.3201 59.6588 41.1999C59.9269 41.1629 60.2505 41.1537 60.3522 41.1999C60.5186 41.2646 60.7035 41.7546 60.7775 42.3463C60.8144 42.6606 60.796 44.0473 60.7497 44.297Z" fill="#000008"/>
<path d="M38.9684 47.3571C38.9129 47.468 38.6356 47.5882 38.3213 47.6344C38.0069 47.6806 37.0454 47.6529 36.5 47.5882C34.54 47.3293 32.4599 46.7284 30.9437 45.9888C30.0932 45.5728 29.483 45.1567 29.03 44.7037L28.7711 44.4356L28.7434 44.0843C28.6972 43.4742 28.7064 42.5127 28.7804 42.1706C28.8266 41.884 28.9283 41.6067 29.067 41.3571C29.1409 41.2646 29.1409 41.2646 29.4738 41.2646C29.8805 41.2646 30.2226 41.3293 30.7773 41.505C31.9144 41.8563 33.6063 42.7068 35.6679 43.9457C37.369 44.9626 38.0069 45.4618 38.4969 46.146C38.8297 46.5712 39.0516 47.1722 38.9684 47.3571Z" fill="#000008"/>
<path d="M52.0591 60.2261C52.0591 60.2538 51.9481 60.6976 51.8094 61.2246C51.6708 61.7515 51.5598 62.1768 51.5598 62.1953C51.4581 62.2045 51.3657 62.2138 51.264 62.2045H50.9681L50.5614 63.166C50.3395 63.693 50.1361 64.183 50.1084 64.2569L50.0529 64.3864L49.6646 63.7577V61.1968L49.5906 61.2153C49.4335 61.2523 48.3148 61.4002 47.8248 61.4465C45.8002 61.6498 43.7663 61.6036 41.7508 61.317C41.4273 61.2708 41.1499 61.2338 41.1407 61.2431C41.1314 61.2523 41.1407 61.844 41.1592 62.5743L41.1869 63.8871L41.0297 64.1275C40.9465 64.2569 40.8633 64.3679 40.8633 64.3771C40.8356 64.4049 40.7431 64.2569 40.5305 63.8317C40.2994 63.3879 40.133 62.9164 40.0128 62.4264L39.9481 62.1583L39.6615 62.1768L39.3749 62.2045L39.3009 61.8625C39.2639 61.6776 39.2177 61.391 39.1992 61.2338L39.1715 60.938L38.9311 60.7253C38.7924 60.6052 38.6538 60.485 38.626 60.4665C38.5798 60.4295 38.5613 60.3648 38.5613 60.3093V60.1984L40.8726 60.2169L40.9465 60.4572L41.3441 60.4757C41.5659 60.485 42.2686 60.5035 42.8972 60.522L44.0529 60.5497L44.3487 60.0874L44.6538 59.6252H45.0421L45.0236 57.7022L44.5151 57.4804C42.8787 56.7592 41.9172 55.9364 41.5567 54.938C41.4827 54.7346 41.4827 54.6606 41.4642 53.7361C41.455 52.8209 41.455 52.7377 41.5197 52.5343C41.6491 52.072 42.0097 51.7115 42.472 51.5913C42.6291 51.5451 43.0451 51.5451 45.227 51.5451L47.7971 51.5543L48.0837 51.693C48.4258 51.8594 48.5829 51.9796 48.7771 52.2384C48.9989 52.5343 49.0637 52.7654 49.0637 53.3293C49.0637 54.1337 49.0082 54.827 48.925 55.1044C48.8048 55.4834 48.6199 55.844 48.3888 56.1676C47.9265 56.7592 47.0852 57.3509 46.3179 57.619L46.096 57.7022L46.1145 59.6437L46.5213 59.6807L46.7986 60.0967L47.0667 60.5127H48.3056C48.9897 60.5127 49.5906 60.5219 49.6461 60.5312C49.7386 60.5497 49.757 60.5404 49.8495 60.3833L49.9604 60.2169H51.0236C51.8187 60.1799 52.0591 60.1984 52.0591 60.2261Z" fill="#000008"/>
<path d="M47.178 62.8794C47.0024 62.9811 46.8822 63.0273 46.8544 63.0088C46.8267 62.9996 46.6973 62.8886 46.5586 62.787L46.309 62.5836L46.0501 62.8609C45.4862 63.4711 45.4677 63.4988 45.3013 63.5081C45.0424 63.5358 44.9869 63.4896 44.6726 63.0181C44.5062 62.7777 44.3768 62.5743 44.3768 62.5743C44.3768 62.5743 44.2566 62.5558 44.1179 62.5466L43.859 62.5188L43.6187 63.0181L43.406 62.9534C43.2396 62.8979 43.0732 62.8332 42.9161 62.7592L42.6387 62.6205V62.0936L47.5571 62.1121L47.5663 62.3617C47.5756 62.6575 47.5848 62.6483 47.178 62.8794Z" fill="#000008"/>
<path d="M70.2905 51.6005C70.2812 51.5635 70.2812 51.4988 70.272 51.3971C68.0532 51.1567 61.7203 51.0088 55.8405 55.8624C55.8405 55.8624 53.9452 47.1721 45.07 47.1721C36.1947 47.1721 32.9035 55.8624 32.9035 55.8624C27.9297 50.5096 21.2734 50.8979 18.8697 51.2492C18.8697 51.3047 18.8604 51.3694 18.8604 51.4249C18.7865 52.7654 18.8235 53.4033 19.0453 54.2446C19.7387 56.8794 21.8743 59.7823 25.221 62.6298C30.7034 67.2893 38.1364 70.6544 43.7666 71.0427C49.6372 71.4403 58.2998 68.0104 64.0687 62.9996C64.9747 62.1953 65.8253 61.3447 66.6203 60.4387C67.1935 59.7731 68.0441 58.6267 67.9794 58.6267C67.9609 58.6267 67.9794 58.6082 68.0163 58.5897C68.0441 58.5712 68.0718 58.5435 68.0533 58.525C68.0441 58.5158 68.0626 58.488 68.0903 58.4788C68.118 58.4695 68.1365 58.451 68.1273 58.4326C68.118 58.4141 68.1273 58.3956 68.1643 58.3863C68.192 58.3771 68.2012 58.3493 68.192 58.3309C68.1827 58.3124 68.192 58.2939 68.2105 58.2939C68.229 58.2939 68.2475 58.2661 68.2475 58.2477C68.2475 58.2292 68.2659 58.2014 68.2844 58.2014C68.3029 58.2014 68.3214 58.1829 68.3214 58.1645C68.3492 58.0905 68.3954 58.0165 68.4416 57.9518C68.5803 57.7392 69.135 56.75 69.2089 56.5836C69.7359 55.3909 70.0687 54.3278 70.2259 53.2646C70.2814 52.7561 70.3274 51.8224 70.2905 51.6005ZM47.178 62.8794C47.0024 62.9811 46.8822 63.0273 46.8544 63.0088C46.8267 62.9996 46.6973 62.8886 46.5586 62.787L46.309 62.5836L46.0501 62.8609C45.4862 63.4711 45.4677 63.4988 45.3013 63.5081C45.0424 63.5358 44.9869 63.4896 44.6726 63.0181C44.5062 62.7777 44.3768 62.5743 44.3768 62.5743C44.3768 62.5743 44.2566 62.5558 44.1179 62.5466L43.859 62.5188L43.6187 63.0181L43.406 62.9534C43.2396 62.8979 43.0732 62.8332 42.9161 62.7592L42.6387 62.6205V62.0936L47.5571 62.1121L47.5663 62.3617C47.5756 62.6575 47.5848 62.6483 47.178 62.8794ZM51.8004 61.2153C51.6617 61.7423 51.5508 62.1675 51.5508 62.186C51.4491 62.1953 51.3566 62.2045 51.2549 62.1953H50.9591L50.5614 63.166C50.3395 63.693 50.1361 64.183 50.1084 64.2569L50.0529 64.3864L49.6646 63.7577V61.1968L49.5906 61.2153C49.4335 61.2523 48.3148 61.4002 47.8248 61.4465C45.8002 61.6498 43.7663 61.6036 41.7508 61.317C41.4273 61.2708 41.1499 61.2338 41.1407 61.2431C41.1314 61.2523 41.1407 61.844 41.1592 62.5743L41.1869 63.8871L41.0297 64.1275C40.9465 64.2569 40.8633 64.3679 40.8633 64.3771C40.8356 64.4049 40.7431 64.2569 40.5305 63.8317C40.2994 63.3879 40.133 62.9164 40.0128 62.4264L39.9481 62.1583L39.6615 62.1768L39.3749 62.2045L39.3009 61.8625C39.2639 61.6776 39.2177 61.391 39.1992 61.2338L39.1715 60.938L38.9311 60.7253C38.7924 60.6052 38.6538 60.485 38.626 60.4665C38.5798 60.4295 38.5613 60.3648 38.5613 60.3093V60.1984L40.8726 60.2169L40.9465 60.4572L41.3441 60.4757C41.5659 60.485 42.2686 60.5035 42.8972 60.522L44.0529 60.5497L44.3487 60.0874L44.6538 59.6252H45.0421L45.0236 57.7022L44.5151 57.4804C42.8787 56.7592 41.9172 55.9364 41.5567 54.938C41.4827 54.7346 41.4827 54.6606 41.4642 53.7361C41.455 52.8209 41.455 52.7377 41.5197 52.5343C41.6491 52.072 42.0097 51.7115 42.472 51.5913C42.6291 51.5451 43.0451 51.5451 45.227 51.5451L47.7971 51.5543L48.0837 51.693C48.4258 51.8594 48.5829 51.9796 48.7771 52.2384C48.9989 52.5343 49.0637 52.7654 49.0637 53.3293C49.0637 54.1337 49.0082 54.827 48.925 55.1044C48.8048 55.4834 48.6199 55.844 48.3888 56.1676C47.9265 56.7592 47.0852 57.3509 46.3179 57.619L46.096 57.7022L46.1145 59.6437L46.5213 59.6807L46.7986 60.0967L47.0667 60.5127H48.3056C48.9897 60.5127 49.5906 60.5219 49.6461 60.5312C49.7386 60.5497 49.757 60.5404 49.8495 60.3833L49.9604 60.2169H51.0236C51.8464 60.2169 52.087 60.2261 52.087 60.2538C52.0592 60.2446 51.939 60.6976 51.8004 61.2153Z" fill="white"/>
<path d="M70.2167 50.6575C70.1982 50.2415 70.1613 49.659 70.1335 49.3724C69.736 45.1752 68.6636 41.7453 66.6297 38.112C66.5465 37.9734 66.4725 37.8347 66.4263 37.7237C66.4078 37.696 66.3985 37.6683 66.3893 37.6498C66.6759 36.79 67.85 33.1937 68.7838 29.0797C70.0503 23.4957 70.8546 16.9687 68.3955 15.0088C68.3955 15.0088 64.1427 14.6945 58.4478 20.2784C56.9039 21.8224 55.4894 23.4957 54.2321 25.28L53.8345 25.1506C51.5418 24.4017 49.1658 23.9395 46.7713 23.7823C46.0502 23.7268 43.3599 23.7268 42.4816 23.7823C39.8283 23.9579 37.7944 24.3555 35.4831 25.1598C35.3907 25.1968 35.3075 25.2245 35.2242 25.2522C33.9207 23.4772 32.4692 21.8131 30.8698 20.2877C24.9438 14.676 20.5339 14.9996 20.5339 14.9996C17.9268 17.0242 18.8143 23.847 20.1641 29.6159C21.0516 33.4341 22.1425 36.79 22.5493 38.0011C22.5216 38.0658 22.4846 38.1398 22.4476 38.2045C20.2935 42.5681 19.1288 46.7746 18.8515 51.2491C21.2644 50.8978 27.9114 50.5003 32.8945 55.8624C32.8945 55.8624 36.1857 47.1721 45.061 47.1721C53.9362 47.1721 55.8314 55.8624 55.8314 55.8624C61.7113 51.0088 68.0441 51.166 70.263 51.3971C70.2537 51.2122 70.2352 50.9348 70.2167 50.6575ZM24.2966 34.5157C24.2966 34.5157 20.839 25.8717 21.7265 20.9348C21.8744 20.1028 22.1518 19.3724 22.5863 18.8177C22.5863 18.8177 26.5062 19.206 32.8298 26.2322C32.8298 26.2322 31.6279 26.8147 30.0193 28.0535C30.0193 28.0535 30.01 28.0627 30.0008 28.0627C28.2535 29.4032 26.0162 31.5296 24.2966 34.5157ZM38.9684 47.3571C38.9129 47.468 38.6356 47.5882 38.3213 47.6344C38.0069 47.6806 37.0454 47.6529 36.5 47.5882C34.54 47.3293 32.4599 46.7284 30.9437 45.9888C30.0932 45.5728 29.483 45.1567 29.03 44.7037L28.7711 44.4356L28.7434 44.0843C28.6972 43.4742 28.7064 42.5127 28.7804 42.1706C28.8266 41.884 28.9283 41.6067 29.067 41.3571C29.1409 41.2646 29.1409 41.2646 29.4738 41.2646C29.8805 41.2646 30.2226 41.3293 30.7773 41.505C31.9144 41.8563 33.6063 42.7068 35.6679 43.9457C37.369 44.9626 38.0069 45.4618 38.4969 46.146C38.8297 46.5712 39.0516 47.1722 38.9684 47.3571ZM60.7497 44.297C60.722 44.4449 60.2875 44.8886 59.853 45.2122C58.5771 46.146 56.2936 47.015 53.9731 47.431C52.6511 47.6714 51.329 47.7084 50.9315 47.5142C50.6726 47.3848 50.6357 47.2831 50.7281 46.9503C50.9223 46.2569 51.5509 45.4988 52.5309 44.7869C53.0301 44.4264 55.0548 43.1968 55.9978 42.6791C57.5509 41.8285 58.8083 41.3201 59.6588 41.1999C59.9269 41.1629 60.2505 41.1537 60.3522 41.1999C60.5186 41.2646 60.7035 41.7546 60.7775 42.3463C60.8144 42.6606 60.796 44.0473 60.7497 44.297ZM59.2151 28.0535L59.1966 28.0442C57.6435 26.8054 56.4786 26.223 56.4786 26.223C62.5896 19.1968 66.3708 18.8085 66.3708 18.8085C66.7868 19.3724 67.0549 20.0935 67.2029 20.9256C68.0626 25.8624 64.7252 34.5157 64.7252 34.5157C63.3292 32.0288 61.4524 29.8285 59.2151 28.0535Z" fill="#FFA409"/>
<path d="M67.2133 20.9255C66.4922 20.8331 63.0808 20.8146 59.2164 28.0534L59.1979 28.0442C57.6447 26.8054 56.4798 26.2229 56.4798 26.2229C62.5908 19.1967 66.372 18.8084 66.372 18.8084C66.7973 19.3724 67.0654 20.0935 67.2133 20.9255Z" fill="#FF9300"/>
<path d="M64.7351 34.5157C63.3298 32.0195 61.4629 29.8285 59.2164 28.0534C63.0808 20.8146 66.483 20.8331 67.2133 20.9255C68.0731 25.8716 64.7351 34.5157 64.7351 34.5157Z" fill="#FF8300"/>
<path d="M67.3512 20.9532C67.3049 20.944 67.2595 20.9348 67.2133 20.9255L67.3512 20.9532Z" fill="#FF8300"/>
<path d="M32.829 26.2228C32.829 26.2228 31.6271 26.8052 30.0185 28.0441C30.0185 28.0441 30.0092 28.0533 30 28.0533C25.9969 20.8052 22.4745 20.833 21.7164 20.9254C21.8643 20.0934 22.1417 19.363 22.5762 18.8083C22.5855 18.8083 26.5054 19.1966 32.829 26.2228Z" fill="#FF9300"/>
<path d="M30.0099 28.0534C28.2533 29.4031 26.0162 31.5204 24.2966 34.5157C24.2966 34.5157 20.8388 25.8716 21.7263 20.9255C22.4752 20.833 26.0068 20.8145 30.0099 28.0534Z" fill="#FF8300"/>
<path d="M21.7263 20.9255C21.6801 20.9347 21.6246 20.944 21.5784 20.9532L21.7263 20.9255Z" fill="#FF8300"/>
<path d="M55.3782 39.3139C55.3782 39.3139 52.4198 39.4988 52.7896 37.1875C53.1594 34.8763 55.4706 34.5989 56.1178 34.6914C56.7649 34.7838 59.3536 35.7083 58.8913 37.6498C58.4291 39.5912 57.7819 39.2214 57.4121 39.3139C57.0423 39.4063 55.3782 39.3139 55.3782 39.3139Z" fill="white"/>
<path d="M33.5599 39.3139C33.5599 39.3139 30.6015 39.4988 30.9713 37.1875C31.3411 34.8763 33.6523 34.5989 34.2995 34.6914C34.9467 34.7838 37.5353 35.7083 37.073 37.6498C36.6108 39.5912 35.9636 39.2214 35.5938 39.3139C35.224 39.4063 33.5599 39.3139 33.5599 39.3139Z" fill="white"/>
</svg>
