<svg width="90" height="90" viewBox="0 0 90 90" fill="none" xmlns="http://www.w3.org/2000/svg">
<path d="M83.8461 54.6511C78.5086 76.0665 56.8183 89.1436 35.3635 83.8028C13.9479 78.449 0.8919 56.7586 6.22944 35.3431C11.567 13.9276 33.2442 0.850533 54.6467 6.19131C76.1146 11.4666 89.1706 33.2225 83.8461 54.6511Z" fill="#F6F8FC"/>
<path fill-rule="evenodd" clip-rule="evenodd" d="M30.3249 28.2002H60.2764C60.991 28.2002 61.6512 28.5705 62.0076 29.1713L70.7339 43.8808C71.1862 44.6436 71.052 45.6064 70.4064 46.225L46.3876 69.2435C45.6095 69.9891 44.3579 69.9891 43.5798 69.2435L19.5936 46.2561C18.9331 45.6232 18.8094 44.6322 19.2951 43.8647L28.6226 29.1241C28.9859 28.5501 29.6305 28.2002 30.3249 28.2002ZM56.4091 34.7675V38.8947H47.8772V41.7562C53.8694 42.062 58.3652 43.318 58.3985 44.8234L58.3984 47.9617C58.365 49.4671 53.8694 50.723 47.8772 51.0288V58.0514H42.2118V51.0288C36.2195 50.723 31.7237 49.4671 31.6904 47.9617L31.6906 44.8234C31.7239 43.318 36.2195 42.062 42.2118 41.7562V38.8947H33.6798V34.7675H56.4091ZM45.0445 48.8728C51.4393 48.8728 56.7843 47.8108 58.0923 46.3925C56.9831 45.1899 52.9708 44.2434 47.8772 43.9834V46.9794C46.9642 47.026 46.0164 47.0506 45.0445 47.0506C44.0725 47.0506 43.1248 47.026 42.2118 46.9794V43.9834C37.1181 44.2434 33.1058 45.1899 31.9966 46.3925C33.3047 47.8108 38.6496 48.8728 45.0445 48.8728Z" fill="#009393"/>
</svg>
